<svg xmlns="http://www.w3.org/2000/svg" viewBox="0 0 1120 270" role="img" aria-labelledby="title desc">
  <title id="title">STL-Musicians.Com logo</title>
  <desc id="desc">A star and musical note mark with the STL-Musicians.Com wordmark and italic tagline.</desc>
  <defs>
    <linearGradient id="note-fill" x1="48" x2="190" y1="210" y2="64" gradientUnits="userSpaceOnUse">
      <stop offset="0" stop-color="#C41E3A"/>
      <stop offset=".46" stop-color="#21314D"/>
      <stop offset="1" stop-color="#002F6C"/>
    </linearGradient>
  </defs>
  <path d="M130 30L158 93L226 101L176 147L189 214L130 180L71 214L84 147L34 101L102 93L130 30Z" fill="#090907" fill-opacity=".86" stroke="#F5EAD2" stroke-width="16" stroke-linejoin="round"/>
  <path d="M130 30L158 93L226 101L176 147L189 214L130 180L71 214L84 147L34 101L102 93L130 30Z" stroke="#D8B765" stroke-width="8" stroke-linejoin="round"/>
  <path d="M172 71V173C172 199 149 218 122 218C100 218 84 205 84 187C84 165 105 150 130 150C139 150 147 152 154 156V93L203 82V104L172 111Z" fill="url(#note-fill)" stroke="#F5EAD2" stroke-width="13" stroke-linejoin="round"/>
  <path d="M165 98L203 89" stroke="#D8B765" stroke-width="7" stroke-linecap="round"/>
  <path d="M174 125C191 104 211 94 235 94C218 104 210 117 211 134C223 140 234 149 244 162C215 151 191 154 173 171" stroke="#D8B765" stroke-width="9" stroke-linecap="round" stroke-linejoin="round"/>
  <text x="292" y="116" fill="#F5EAD2" font-family="Arial, Helvetica, sans-serif" font-size="58" font-weight="900" letter-spacing=".5">STL-Musicians.Com</text>
  <text x="294" y="164" fill="#C8B894" font-family="Arial, Helvetica, sans-serif" font-size="28" font-style="italic" font-weight="500">St. Louis music. One room. All night</text>
</svg>
