<svg width="512" height="512" viewBox="0 0 512 512" fill="none" xmlns="http://www.w3.org/2000/svg">
  <rect width="512" height="512" rx="96" fill="#080B12"/>
  <g clip-path="url(#tile)">
    <path d="M0 0H512V512H0V0Z" fill="#002F6C"/>
    <path d="M512 0V512H0L512 0Z" fill="#C41E3A"/>
    <path d="M0 416L416 0H512L96 512H0V416Z" fill="#F5EAD2"/>
    <path d="M0 488L488 0H512V42L42 512H0V488Z" fill="#B58B2A"/>
  </g>
  <rect x="22" y="22" width="468" height="468" rx="82" stroke="#F5EAD2" stroke-width="22"/>
  <g filter="url(#shadow)">
    <path d="M316 110V333C316 390 267 430 209 430C163 430 128 404 128 366C128 321 172 289 225 289C245 289 263 293 278 300V178L384 153V104L316 110Z" fill="#F5EAD2"/>
    <path d="M316 110V333C316 390 267 430 209 430C163 430 128 404 128 366C128 321 172 289 225 289C245 289 263 293 278 300V178L384 153V104L316 110Z" stroke="#080B12" stroke-width="18" stroke-linejoin="round"/>
  </g>
  <path d="M278 184L384 159" stroke="#002F6C" stroke-width="18" stroke-linecap="round"/>
  <defs>
    <clipPath id="tile">
      <rect width="512" height="512" rx="96"/>
    </clipPath>
    <filter id="shadow" x="86" y="70" width="340" height="402" filterUnits="userSpaceOnUse" color-interpolation-filters="sRGB">
      <feDropShadow dx="0" dy="14" stdDeviation="12" flood-color="#080B12" flood-opacity="0.42"/>
    </filter>
  </defs>
</svg>
